<svg width="25" height="24" viewBox="0 0 25 24" fill="none" xmlns="http://www.w3.org/2000/svg">
<path d="M11.0542 6.24L7.67123 2.335C7.28123 1.885 6.56623 1.887 6.11323 2.341L3.33123 5.128C2.50323 5.957 2.26623 7.188 2.74523 8.175C5.60685 14.1 10.3853 18.8851 16.3062 21.755C17.2922 22.234 18.5222 21.997 19.3502 21.168L22.1582 18.355C22.6132 17.9 22.6142 17.181 22.1602 16.791L18.2402 13.426C17.8302 13.074 17.1932 13.12 16.7822 13.532L15.4182 14.898C15.3484 14.9712 15.2565 15.0194 15.1566 15.0353C15.0567 15.0512 14.9543 15.0339 14.8652 14.986C12.6357 13.7021 10.7862 11.8502 9.50523 9.619C9.45726 9.52975 9.43989 9.42723 9.45578 9.32716C9.47168 9.22708 9.51996 9.13499 9.59323 9.065L10.9532 7.704C11.3652 7.29 11.4102 6.65 11.0542 6.239V6.24Z" stroke="white" stroke-width="2" stroke-linecap="round" stroke-linejoin="round"/>
</svg>
