<svg width="20" height="20" viewBox="0 0 20 20" fill="none" xmlns="http://www.w3.org/2000/svg">
<path d="M11.1776 18.8889H3.27762C3.06844 18.8956 2.86005 18.8602 2.66484 18.7847C2.46963 18.7093 2.29158 18.5953 2.14128 18.4497C1.99098 18.3041 1.87149 18.1297 1.78993 17.937C1.70837 17.7442 1.6664 17.5371 1.6665 17.3278V2.7C1.68243 2.2736 1.86685 1.87093 2.17931 1.58034C2.49176 1.28976 2.90674 1.13499 3.33317 1.15H11.2332C11.4377 1.14542 11.6411 1.18242 11.8309 1.25876C12.0207 1.33511 12.193 1.4492 12.3374 1.59414C12.4819 1.73907 12.5953 1.91181 12.671 2.10191C12.7467 2.292 12.7829 2.49547 12.7776 2.7V17.3278C12.7769 17.5359 12.7348 17.7418 12.6536 17.9334C12.5725 18.125 12.454 18.2986 12.305 18.4439C12.1561 18.5893 11.9797 18.7035 11.7861 18.7799C11.5925 18.8563 11.3857 18.8933 11.1776 18.8889ZM3.27762 2.22222C3.21322 2.22 3.14903 2.23067 3.08882 2.25361C3.02861 2.27656 2.97359 2.31131 2.92701 2.35582C2.88042 2.40034 2.84321 2.45372 2.81755 2.51282C2.7919 2.57193 2.77832 2.63557 2.77762 2.7V17.3278C2.77762 17.456 2.82854 17.5789 2.91918 17.6695C3.00982 17.7602 3.13276 17.8111 3.26095 17.8111H11.1776C11.3106 17.8129 11.4392 17.7639 11.5373 17.6741C11.6354 17.5842 11.6955 17.4604 11.7054 17.3278V2.7C11.6942 2.56838 11.6335 2.4459 11.5355 2.35724C11.4376 2.26859 11.3097 2.22034 11.1776 2.22222H3.27762Z" fill="#007CC7"/>
<path d="M16.4056 18.8889C16.1489 18.8911 15.8942 18.8424 15.6564 18.7457C15.4186 18.649 15.2022 18.5061 15.0199 18.3253C14.8376 18.1445 14.6929 17.9294 14.5941 17.6924C14.4953 17.4554 14.4445 17.2012 14.4445 16.9444V12.7778C14.4445 12.4831 14.3274 12.2005 14.1191 11.9921C13.9107 11.7837 13.6281 11.6667 13.3334 11.6667H12.539C12.3916 11.6667 12.2503 11.6081 12.1461 11.5039C12.0419 11.3998 11.9834 11.2585 11.9834 11.1111C11.9834 10.9638 12.0419 10.8225 12.1461 10.7183C12.2503 10.6141 12.3916 10.5556 12.539 10.5556H13.3334C13.9228 10.5556 14.488 10.7897 14.9047 11.2064C15.3215 11.6232 15.5556 12.1884 15.5556 12.7778V16.9444C15.5556 17.1655 15.6434 17.3774 15.7997 17.5337C15.956 17.69 16.1679 17.7778 16.389 17.7778C16.61 17.7778 16.8219 17.69 16.9782 17.5337C17.1345 17.3774 17.2223 17.1655 17.2223 16.9444V9.61111L15.4834 5.72222C15.3795 5.50551 15.2163 5.32266 15.0128 5.19484C14.8093 5.06702 14.5737 4.99947 14.3334 5H13.9278C13.7805 5 13.6392 4.94147 13.535 4.83728C13.4308 4.73309 13.3723 4.59178 13.3723 4.44444C13.3723 4.2971 13.4308 4.15579 13.535 4.0516C13.6392 3.94742 13.7805 3.88889 13.9278 3.88889H14.3334C14.7953 3.88865 15.2474 4.02234 15.6349 4.27378C16.0224 4.52521 16.3287 4.88361 16.5167 5.30555L18.3001 9.28333C18.3327 9.35486 18.3497 9.4325 18.3501 9.51111V16.9444C18.3501 17.4601 18.1452 17.9547 17.7806 18.3194C17.4159 18.684 16.9213 18.8889 16.4056 18.8889Z" fill="#007CC7"/>
<path d="M9.99978 5H4.44423C4.29688 5 4.15558 4.94147 4.05139 4.83728C3.9472 4.73309 3.88867 4.59178 3.88867 4.44444C3.88867 4.2971 3.9472 4.15579 4.05139 4.0516C4.15558 3.94742 4.29688 3.88889 4.44423 3.88889H9.99978C10.1471 3.88889 10.2884 3.94742 10.3926 4.0516C10.4968 4.15579 10.5553 4.2971 10.5553 4.44444C10.5553 4.59178 10.4968 4.73309 10.3926 4.83728C10.2884 4.94147 10.1471 5 9.99978 5Z" fill="#007CC7"/>
<path d="M9.99978 7.22223H4.44423C4.29688 7.22223 4.15558 7.16369 4.05139 7.05951C3.9472 6.95532 3.88867 6.81401 3.88867 6.66667C3.88867 6.51933 3.9472 6.37802 4.05139 6.27383C4.15558 6.16965 4.29688 6.11111 4.44423 6.11111H9.99978C10.1471 6.11111 10.2884 6.16965 10.3926 6.27383C10.4968 6.37802 10.5553 6.51933 10.5553 6.66667C10.5553 6.81401 10.4968 6.95532 10.3926 7.05951C10.2884 7.16369 10.1471 7.22223 9.99978 7.22223Z" fill="#007CC7"/>
<path d="M13.8891 6.71111C13.7417 6.71111 13.6004 6.65258 13.4962 6.54839C13.392 6.4442 13.3335 6.30289 13.3335 6.15555V2.82222C13.3335 2.67488 13.392 2.53357 13.4962 2.42938C13.6004 2.32519 13.7417 2.26666 13.8891 2.26666C14.0364 2.26666 14.1777 2.32519 14.2819 2.42938C14.3861 2.53357 14.4446 2.67488 14.4446 2.82222V6.15555C14.4446 6.30289 14.3861 6.4442 14.2819 6.54839C14.1777 6.65258 14.0364 6.71111 13.8891 6.71111Z" fill="#007CC7"/>
</svg>
