<svg width="20" height="20" viewBox="0 0 20 20" fill="none" xmlns="http://www.w3.org/2000/svg">
<path d="M11.1781 18.8889H3.2781C3.06893 18.8956 2.86054 18.8602 2.66533 18.7847C2.47011 18.7093 2.29207 18.5954 2.14176 18.4497C1.99146 18.3041 1.87198 18.1297 1.79042 17.937C1.70886 17.7442 1.66689 17.5371 1.66699 17.3278V2.70002C1.68291 2.27362 1.86734 1.87094 2.17979 1.58036C2.49225 1.28977 2.90723 1.135 3.33366 1.15002H11.2337C11.4382 1.14543 11.6415 1.18244 11.8314 1.25878C12.0212 1.33512 12.1935 1.44922 12.3379 1.59415C12.4823 1.73908 12.5958 1.91183 12.6715 2.10192C12.7471 2.29201 12.7834 2.49549 12.7781 2.70002V17.3278C12.7774 17.5359 12.7353 17.7418 12.6541 17.9334C12.573 18.1251 12.4545 18.2986 12.3055 18.4439C12.1566 18.5893 11.9802 18.7035 11.7866 18.7799C11.593 18.8563 11.3862 18.8933 11.1781 18.8889ZM3.2781 2.22224C3.21371 2.22001 3.14952 2.23068 3.08931 2.25363C3.02909 2.27657 2.97408 2.31132 2.92749 2.35584C2.88091 2.40035 2.84369 2.45373 2.81804 2.51284C2.79238 2.57195 2.77881 2.63559 2.7781 2.70002V17.3278C2.7781 17.456 2.82903 17.5789 2.91967 17.6696C3.01031 17.7602 3.13325 17.8111 3.26144 17.8111H11.1781C11.3111 17.8129 11.4397 17.7639 11.5378 17.6741C11.6359 17.5843 11.696 17.4604 11.7059 17.3278V2.70002C11.6947 2.56839 11.634 2.44591 11.536 2.35726C11.4381 2.2686 11.3102 2.22035 11.1781 2.22224H3.2781Z" fill="#007CC7"/>
<path d="M16.4056 18.8889C16.1489 18.8911 15.8942 18.8424 15.6564 18.7457C15.4186 18.649 15.2022 18.5061 15.0199 18.3253C14.8376 18.1445 14.6929 17.9294 14.5941 17.6924C14.4953 17.4554 14.4445 17.2012 14.4445 16.9444V12.7778C14.4445 12.4831 14.3274 12.2005 14.1191 11.9921C13.9107 11.7837 13.6281 11.6667 13.3334 11.6667H12.539C12.3916 11.6667 12.2503 11.6081 12.1461 11.5039C12.0419 11.3998 11.9834 11.2585 11.9834 11.1111C11.9834 10.9638 12.0419 10.8225 12.1461 10.7183C12.2503 10.6141 12.3916 10.5556 12.539 10.5556H13.3334C13.9228 10.5556 14.488 10.7897 14.9047 11.2064C15.3215 11.6232 15.5556 12.1884 15.5556 12.7778V16.9444C15.5556 17.1655 15.6434 17.3774 15.7997 17.5337C15.956 17.69 16.1679 17.7778 16.389 17.7778C16.61 17.7778 16.8219 17.69 16.9782 17.5337C17.1345 17.3774 17.2223 17.1655 17.2223 16.9444V9.61111L15.4834 5.72222C15.3795 5.50551 15.2163 5.32266 15.0128 5.19484C14.8093 5.06702 14.5737 4.99947 14.3334 5H13.9278C13.7805 5 13.6392 4.94147 13.535 4.83728C13.4308 4.73309 13.3723 4.59178 13.3723 4.44444C13.3723 4.2971 13.4308 4.15579 13.535 4.0516C13.6392 3.94742 13.7805 3.88889 13.9278 3.88889H14.3334C14.7953 3.88865 15.2474 4.02234 15.6349 4.27378C16.0224 4.52521 16.3287 4.88361 16.5167 5.30555L18.3001 9.28333C18.3327 9.35486 18.3497 9.4325 18.3501 9.51111V16.9444C18.3501 17.4601 18.1452 17.9547 17.7806 18.3194C17.4159 18.684 16.9213 18.8889 16.4056 18.8889Z" fill="#007CC7"/>
<path d="M9.99978 5H4.44423C4.29688 5 4.15558 4.94147 4.05139 4.83728C3.9472 4.73309 3.88867 4.59178 3.88867 4.44444C3.88867 4.2971 3.9472 4.15579 4.05139 4.0516C4.15558 3.94742 4.29688 3.88889 4.44423 3.88889H9.99978C10.1471 3.88889 10.2884 3.94742 10.3926 4.0516C10.4968 4.15579 10.5553 4.2971 10.5553 4.44444C10.5553 4.59178 10.4968 4.73309 10.3926 4.83728C10.2884 4.94147 10.1471 5 9.99978 5Z" fill="#007CC7"/>
<path d="M9.99978 7.22223H4.44423C4.29688 7.22223 4.15558 7.16369 4.05139 7.05951C3.9472 6.95532 3.88867 6.81401 3.88867 6.66667C3.88867 6.51933 3.9472 6.37802 4.05139 6.27383C4.15558 6.16965 4.29688 6.11111 4.44423 6.11111H9.99978C10.1471 6.11111 10.2884 6.16965 10.3926 6.27383C10.4968 6.37802 10.5553 6.51933 10.5553 6.66667C10.5553 6.81401 10.4968 6.95532 10.3926 7.05951C10.2884 7.16369 10.1471 7.22223 9.99978 7.22223Z" fill="#007CC7"/>
<path d="M13.8886 6.71111C13.7412 6.71111 13.5999 6.65258 13.4957 6.54839C13.3915 6.4442 13.333 6.30289 13.333 6.15555V2.82222C13.333 2.67488 13.3915 2.53357 13.4957 2.42938C13.5999 2.32519 13.7412 2.26666 13.8886 2.26666C14.0359 2.26666 14.1772 2.32519 14.2814 2.42938C14.3856 2.53357 14.4441 2.67488 14.4441 2.82222V6.15555C14.4441 6.30289 14.3856 6.4442 14.2814 6.54839C14.1772 6.65258 14.0359 6.71111 13.8886 6.71111Z" fill="#007CC7"/>
</svg>
