<svg width="19" height="18" viewBox="0 0 19 18" fill="none" xmlns="http://www.w3.org/2000/svg">
<path d="M13.5848 9.00005C13.5827 8.32773 13.5107 7.65745 13.3698 7.00005H15.1698C15.0771 6.72583 14.9652 6.4585 14.8348 6.20005H13.1598C12.8449 5.14808 12.3566 4.15609 11.7148 3.26505C11.3048 3.09265 10.8773 2.96524 10.4398 2.88505C11.319 3.82967 11.9826 4.95389 12.3848 6.18005H9.68982V2.80005H8.93982V6.18505H6.24482C6.64786 4.95667 7.31324 3.83065 8.19482 2.88505C7.75921 2.9639 7.3334 3.08963 6.92482 3.26005C6.28055 4.14736 5.7888 5.13593 5.46982 6.18505H3.78482C3.65211 6.44822 3.53848 6.72059 3.44482 7.00005H5.25982C5.11897 7.65745 5.04691 8.32773 5.04482 9.00005C5.04621 9.73544 5.13006 10.4684 5.29482 11.185H3.52482C3.62826 11.4653 3.75192 11.7377 3.89482 12H5.50982C5.81593 12.9579 6.26973 13.8622 6.85482 14.68C7.27381 14.8598 7.71151 14.9922 8.15982 15.075C7.34378 14.1849 6.7162 13.139 6.31482 12H8.94482V15.17H9.69482V12H12.3148C11.9121 13.1394 11.2828 14.1855 10.4648 15.075C10.9152 14.9894 11.3546 14.8535 11.7748 14.67C12.359 13.8552 12.8128 12.9545 13.1198 12H14.7198C14.8621 11.7425 14.9857 11.4752 15.0898 11.2H13.3148C13.4874 10.4792 13.578 9.74121 13.5848 9.00005ZM8.93982 11.185H6.06982C5.71781 9.80897 5.70237 8.36835 6.02482 6.98505H8.93982V11.185ZM12.5598 11.185H9.68982V7.00005H12.6048C12.7485 7.65692 12.8189 8.32767 12.8148 9.00005C12.8189 9.73604 12.7333 10.4698 12.5598 11.185Z" fill="white"/>
<path d="M9.31495 1C7.73269 1 6.18598 1.46919 4.87038 2.34824C3.55479 3.22729 2.52941 4.47672 1.92391 5.93853C1.31841 7.40034 1.15998 9.00887 1.46866 10.5607C1.77734 12.1126 2.53927 13.538 3.65809 14.6569C4.77691 15.7757 6.20237 16.5376 7.75422 16.8463C9.30607 17.155 10.9146 16.9965 12.3764 16.391C13.8382 15.7855 15.0877 14.7602 15.9667 13.4446C16.8458 12.129 17.3149 10.5823 17.3149 9C17.3149 6.87827 16.4721 4.84344 14.9718 3.34315C13.4715 1.84285 11.4367 1 9.31495 1ZM9.31495 16C7.93048 16 6.5771 15.5895 5.42595 14.8203C4.27481 14.0511 3.3776 12.9579 2.84779 11.6788C2.31797 10.3997 2.17935 8.99224 2.44945 7.63437C2.71954 6.2765 3.38623 5.02922 4.3652 4.05025C5.34416 3.07128 6.59145 2.4046 7.94931 2.1345C9.30718 1.86441 10.7146 2.00303 11.9937 2.53284C13.2728 3.06266 14.3661 3.95986 15.1352 5.11101C15.9044 6.26215 16.3149 7.61553 16.3149 9C16.3149 10.8565 15.5774 12.637 14.2647 13.9497C12.9519 15.2625 11.1715 16 9.31495 16Z" fill="white"/>
</svg>
