<svg width="24" height="24" viewBox="0 0 24 24" fill="none" xmlns="http://www.w3.org/2000/svg">
<g clip-path="url(#clip0_166_1617)">
<path d="M12.0057 6.60934C8.59853 6.60934 5.85032 9.01403 5.85032 11.9953C5.85032 14.9765 8.59853 17.3812 12.0057 17.3812C15.4128 17.3812 18.161 14.9765 18.161 11.9953C18.161 9.01403 15.4128 6.60934 12.0057 6.60934ZM12.0057 15.4968C9.80389 15.4968 8.00389 13.9265 8.00389 11.9953C8.00389 10.064 9.79853 8.49372 12.0057 8.49372C14.2128 8.49372 16.0075 10.064 16.0075 11.9953C16.0075 13.9265 14.2075 15.4968 12.0057 15.4968ZM19.8485 6.38903C19.8485 7.08747 19.2057 7.64528 18.4128 7.64528C17.6146 7.64528 16.9771 7.08278 16.9771 6.38903C16.9771 5.69528 17.62 5.13278 18.4128 5.13278C19.2057 5.13278 19.8485 5.69528 19.8485 6.38903ZM23.9253 7.66403C23.8342 5.98122 23.395 4.49059 21.986 3.26247C20.5825 2.03434 18.8789 1.64997 16.9557 1.56559C14.9735 1.46715 9.03246 1.46715 7.05032 1.56559C5.13246 1.64528 3.42889 2.02965 2.01997 3.25778C0.611039 4.4859 0.177111 5.97653 0.0806823 7.65934C-0.0318176 9.39372 -0.0318176 14.5922 0.0806823 16.3265C0.171754 18.0093 0.611039 19.5 2.01997 20.7281C3.42889 21.9562 5.12711 22.3406 7.05032 22.425C9.03246 22.5234 14.9735 22.5234 16.9557 22.425C18.8789 22.3453 20.5825 21.9609 21.986 20.7281C23.3896 19.5 23.8289 18.0093 23.9253 16.3265C24.0378 14.5922 24.0378 9.39841 23.9253 7.66403ZM21.3646 18.1875C20.9467 19.1062 20.1378 19.814 19.0825 20.1843C17.5021 20.7328 13.7521 20.6062 12.0057 20.6062C10.2592 20.6062 6.50389 20.7281 4.92889 20.1843C3.87889 19.8187 3.06997 19.1109 2.64675 18.1875C2.01997 16.8047 2.16461 13.5234 2.16461 11.9953C2.16461 10.4672 2.02532 7.18122 2.64675 5.80309C3.06461 4.88434 3.87354 4.17653 4.92889 3.80622C6.50925 3.25778 10.2592 3.38434 12.0057 3.38434C13.7521 3.38434 17.5075 3.26247 19.0825 3.80622C20.1325 4.17184 20.9414 4.87965 21.3646 5.80309C21.9914 7.1859 21.8467 10.4672 21.8467 11.9953C21.8467 13.5234 21.9914 16.8093 21.3646 18.1875Z" fill="white"/>
</g>
<defs>
<clipPath id="clip0_166_1617">
<rect width="24" height="24" fill="white"/>
</clipPath>
</defs>
</svg>
