<svg width="24" height="24" viewBox="0 0 24 24" fill="none" xmlns="http://www.w3.org/2000/svg">
<g clip-path="url(#clip0_166_6100)">
<path d="M12.0055 6.6094C8.59832 6.6094 5.85011 9.01409 5.85011 11.9953C5.85011 14.9766 8.59832 17.3813 12.0055 17.3813C15.4126 17.3813 18.1608 14.9766 18.1608 11.9953C18.1608 9.01409 15.4126 6.6094 12.0055 6.6094ZM12.0055 15.4969C9.80368 15.4969 8.00368 13.9266 8.00368 11.9953C8.00368 10.0641 9.79832 8.49377 12.0055 8.49377C14.2126 8.49377 16.0072 10.0641 16.0072 11.9953C16.0072 13.9266 14.2072 15.4969 12.0055 15.4969ZM19.8483 6.38909C19.8483 7.08752 19.2055 7.64534 18.4126 7.64534C17.6144 7.64534 16.9769 7.08284 16.9769 6.38909C16.9769 5.69534 17.6197 5.13284 18.4126 5.13284C19.2055 5.13284 19.8483 5.69534 19.8483 6.38909ZM23.9251 7.66409C23.834 5.98127 23.3947 4.49065 21.9858 3.26252C20.5822 2.0344 18.8787 1.65002 16.9555 1.56565C14.9733 1.46721 9.03225 1.46721 7.05011 1.56565C5.13225 1.64534 3.42868 2.02971 2.01975 3.25784C0.610826 4.48596 0.176897 5.97659 0.0804687 7.6594C-0.0320312 9.39377 -0.0320312 14.5922 0.0804687 16.3266C0.17154 18.0094 0.610826 19.5 2.01975 20.7281C3.42868 21.9563 5.12689 22.3406 7.05011 22.425C9.03225 22.5235 14.9733 22.5235 16.9555 22.425C18.8787 22.3453 20.5822 21.961 21.9858 20.7281C23.3894 19.5 23.8287 18.0094 23.9251 16.3266C24.0376 14.5922 24.0376 9.39846 23.9251 7.66409ZM21.3644 18.1875C20.9465 19.1063 20.1376 19.8141 19.0822 20.1844C17.5019 20.7328 13.7519 20.6063 12.0055 20.6063C10.259 20.6063 6.50368 20.7281 4.92868 20.1844C3.87868 19.8188 3.06975 19.111 2.64654 18.1875C2.01975 16.8047 2.1644 13.5235 2.1644 11.9953C2.1644 10.4672 2.02511 7.18127 2.64654 5.80315C3.0644 4.8844 3.87332 4.17659 4.92868 3.80627C6.50904 3.25784 10.259 3.3844 12.0055 3.3844C13.7519 3.3844 17.5072 3.26252 19.0822 3.80627C20.1322 4.1719 20.9412 4.87971 21.3644 5.80315C21.9912 7.18596 21.8465 10.4672 21.8465 11.9953C21.8465 13.5235 21.9912 16.8094 21.3644 18.1875Z" fill="white"/>
</g>
<defs>
<clipPath id="clip0_166_6100">
<rect width="24" height="24" fill="white"/>
</clipPath>
</defs>
</svg>
