<svg width="20" height="20" viewBox="0 0 20 20" fill="none" xmlns="http://www.w3.org/2000/svg">
<path d="M18.1948 2.48099H15.2418C15.1827 2.48099 15.1259 2.50448 15.0841 2.5463C15.0423 2.58812 15.0188 2.64484 15.0188 2.70399C15.0188 2.74199 15.0308 2.77599 15.0473 2.80699V4.50599C15.0474 4.56825 15.0351 4.62992 15.0113 4.68746C14.9876 4.745 14.9526 4.79728 14.9086 4.8413C14.8646 4.88533 14.8123 4.92024 14.7548 4.94404C14.6972 4.96784 14.6356 4.98005 14.5733 4.97999H13.6543C13.5965 4.97999 13.5393 4.96861 13.4859 4.9465C13.4325 4.92438 13.384 4.89197 13.3432 4.85112C13.3023 4.81026 13.2699 4.76175 13.2478 4.70837C13.2257 4.65499 13.2143 4.59777 13.2143 4.53999V2.83449C13.2438 2.79728 13.2603 2.75145 13.2613 2.70399C13.2614 2.67468 13.2556 2.64566 13.2445 2.61857C13.2333 2.59149 13.2168 2.56688 13.1961 2.54616C13.1754 2.52544 13.1508 2.50901 13.1237 2.49783C13.0966 2.48665 13.0676 2.48092 13.0383 2.48099H7.0858C7.02665 2.48099 6.96993 2.50448 6.92811 2.5463C6.88629 2.58812 6.8628 2.64484 6.8628 2.70399C6.8628 2.73849 6.8723 2.76999 6.8863 2.79949V4.51799C6.8863 4.57872 6.87433 4.63887 6.85109 4.69498C6.82785 4.75109 6.79378 4.80208 6.75083 4.84503C6.70789 4.88797 6.6569 4.92204 6.60079 4.94528C6.54467 4.96853 6.48453 4.98049 6.4238 4.98049H5.6078C5.48394 4.98049 5.36516 4.93129 5.27758 4.84371C5.19 4.75613 5.1408 4.63734 5.1408 4.51349V2.81199C5.16065 2.7794 5.17152 2.74214 5.1723 2.70399C5.17236 2.67468 5.16664 2.64566 5.15546 2.61857C5.14427 2.59149 5.12785 2.56688 5.10713 2.54616C5.08641 2.52544 5.0618 2.50901 5.03471 2.49783C5.00763 2.48665 4.9786 2.48092 4.9493 2.48099H1.8378C1.70638 2.48112 1.58037 2.53335 1.48739 2.62623C1.39442 2.71911 1.34206 2.84507 1.3418 2.97649V17.7435C1.3418 18.0175 1.5643 18.24 1.8378 18.24H18.1948C18.3263 18.2397 18.4523 18.1873 18.5452 18.0942C18.6381 18.0011 18.6903 17.875 18.6903 17.7435V2.97649C18.69 2.84515 18.6377 2.71928 18.5449 2.62641C18.452 2.53354 18.3261 2.48125 18.1948 2.48099ZM18.1948 17.794H1.8378C1.83119 17.794 1.82465 17.7927 1.81855 17.7901C1.81245 17.7876 1.80691 17.7839 1.80226 17.7792C1.79761 17.7745 1.79394 17.7689 1.79146 17.7628C1.78898 17.7567 1.78773 17.7501 1.7878 17.7435V6.60699H18.2443V17.743C18.2444 17.7496 18.2433 17.7562 18.2408 17.7623C18.2384 17.7685 18.2348 17.7741 18.2302 17.7788C18.2256 17.7836 18.2201 17.7873 18.214 17.7899C18.2079 17.7926 18.2014 17.7939 18.1948 17.794Z" fill="#007CC7"/>
<path d="M6.07359 4.47199C6.19659 4.47199 6.29659 4.37199 6.29659 4.24899V1.24999C6.29659 1.22071 6.29082 1.19171 6.27961 1.16465C6.2684 1.1376 6.25198 1.11302 6.23127 1.09231C6.21056 1.0716 6.18598 1.05517 6.15892 1.04397C6.13187 1.03276 6.10287 1.02699 6.07359 1.02699C6.0443 1.02699 6.0153 1.03276 5.98825 1.04397C5.96119 1.05517 5.93661 1.0716 5.9159 1.09231C5.89519 1.11302 5.87877 1.1376 5.86756 1.16465C5.85635 1.19171 5.85059 1.22071 5.85059 1.24999V4.24949C5.85059 4.37249 5.95059 4.47199 6.07359 4.47199Z" fill="#007CC7"/>
<path d="M14.1507 4.47199C14.2737 4.47199 14.3737 4.37199 14.3737 4.24899V1.24999C14.3737 1.19085 14.3502 1.13413 14.3084 1.09231C14.2666 1.05049 14.2099 1.02699 14.1507 1.02699C14.0916 1.02699 14.0349 1.05049 13.993 1.09231C13.9512 1.13413 13.9277 1.19085 13.9277 1.24999V4.24949C13.9277 4.37249 14.0272 4.47199 14.1507 4.47199Z" fill="#007CC7"/>
<path d="M4.92138 9.98049C5.60014 9.98049 6.15038 9.43025 6.15038 8.75149C6.15038 8.07273 5.60014 7.52249 4.92138 7.52249C4.24262 7.52249 3.69238 8.07273 3.69238 8.75149C3.69238 9.43025 4.24262 9.98049 4.92138 9.98049Z" fill="#007CC7"/>
<path d="M8.45361 9.98049C9.13237 9.98049 9.68261 9.43025 9.68261 8.75149C9.68261 8.07273 9.13237 7.52249 8.45361 7.52249C7.77485 7.52249 7.22461 8.07273 7.22461 8.75149C7.22461 9.43025 7.77485 9.98049 8.45361 9.98049Z" fill="#007CC7"/>
<path d="M11.9849 9.98049C12.6636 9.98049 13.2139 9.43025 13.2139 8.75149C13.2139 8.07273 12.6636 7.52249 11.9849 7.52249C11.3061 7.52249 10.7559 8.07273 10.7559 8.75149C10.7559 9.43025 11.3061 9.98049 11.9849 9.98049Z" fill="#007CC7"/>
<path d="M4.92138 13.403C5.60014 13.403 6.15038 12.8528 6.15038 12.174C6.15038 11.4952 5.60014 10.945 4.92138 10.945C4.24262 10.945 3.69238 11.4952 3.69238 12.174C3.69238 12.8528 4.24262 13.403 4.92138 13.403Z" fill="#007CC7"/>
<path d="M8.45361 13.403C9.13237 13.403 9.68261 12.8528 9.68261 12.174C9.68261 11.4952 9.13237 10.945 8.45361 10.945C7.77485 10.945 7.22461 11.4952 7.22461 12.174C7.22461 12.8528 7.77485 13.403 8.45361 13.403Z" fill="#007CC7"/>
<path d="M11.9849 13.403C12.6636 13.403 13.2139 12.8528 13.2139 12.174C13.2139 11.4952 12.6636 10.945 11.9849 10.945C11.3061 10.945 10.7559 11.4952 10.7559 12.174C10.7559 12.8528 11.3061 13.403 11.9849 13.403Z" fill="#007CC7"/>
<path d="M4.92138 16.8255C5.60014 16.8255 6.15038 16.2753 6.15038 15.5965C6.15038 14.9177 5.60014 14.3675 4.92138 14.3675C4.24262 14.3675 3.69238 14.9177 3.69238 15.5965C3.69238 16.2753 4.24262 16.8255 4.92138 16.8255Z" fill="#007CC7"/>
<path d="M8.45361 16.8255C9.13237 16.8255 9.68261 16.2753 9.68261 15.5965C9.68261 14.9177 9.13237 14.3675 8.45361 14.3675C7.77485 14.3675 7.22461 14.9177 7.22461 15.5965C7.22461 16.2753 7.77485 16.8255 8.45361 16.8255Z" fill="#007CC7"/>
<path d="M11.9849 16.8255C12.6636 16.8255 13.2139 16.2753 13.2139 15.5965C13.2139 14.9177 12.6636 14.3675 11.9849 14.3675C11.3061 14.3675 10.7559 14.9177 10.7559 15.5965C10.7559 16.2753 11.3061 16.8255 11.9849 16.8255Z" fill="#007CC7"/>
<path d="M15.4341 9.98049C16.1128 9.98049 16.6631 9.43025 16.6631 8.75149C16.6631 8.07273 16.1128 7.52249 15.4341 7.52249C14.7553 7.52249 14.2051 8.07273 14.2051 8.75149C14.2051 9.43025 14.7553 9.98049 15.4341 9.98049Z" fill="#007CC7"/>
<path d="M15.4341 13.403C16.1128 13.403 16.6631 12.8528 16.6631 12.174C16.6631 11.4952 16.1128 10.945 15.4341 10.945C14.7553 10.945 14.2051 11.4952 14.2051 12.174C14.2051 12.8528 14.7553 13.403 15.4341 13.403Z" fill="#007CC7"/>
<path d="M15.4341 16.8255C16.1128 16.8255 16.6631 16.2753 16.6631 15.5965C16.6631 14.9177 16.1128 14.3675 15.4341 14.3675C14.7553 14.3675 14.2051 14.9177 14.2051 15.5965C14.2051 16.2753 14.7553 16.8255 15.4341 16.8255Z" fill="#007CC7"/>
</svg>
