<svg width="20" height="20" viewBox="0 0 20 20" fill="none" xmlns="http://www.w3.org/2000/svg">
<path d="M18.1943 2.48099H15.2413C15.1822 2.48099 15.1254 2.50448 15.0836 2.5463C15.0418 2.58812 15.0183 2.64484 15.0183 2.70399C15.0183 2.74199 15.0303 2.77599 15.0468 2.80699V4.50599C15.0469 4.56825 15.0347 4.62992 15.0109 4.68746C14.9871 4.745 14.9522 4.79728 14.9081 4.8413C14.8641 4.88533 14.8118 4.92024 14.7543 4.94404C14.6967 4.96784 14.6351 4.98005 14.5728 4.97999H13.6538C13.596 4.97999 13.5388 4.96861 13.4854 4.9465C13.432 4.92438 13.3835 4.89197 13.3427 4.85112C13.3018 4.81026 13.2694 4.76175 13.2473 4.70837C13.2252 4.65499 13.2138 4.59777 13.2138 4.53999V2.83449C13.2433 2.79728 13.2598 2.75145 13.2608 2.70399C13.2609 2.67468 13.2552 2.64566 13.244 2.61857C13.2328 2.59149 13.2164 2.56688 13.1956 2.54616C13.1749 2.52544 13.1503 2.50901 13.1232 2.49783C13.0961 2.48665 13.0671 2.48092 13.0378 2.48099H7.08531C7.02617 2.48099 6.96944 2.50448 6.92762 2.5463C6.8858 2.58812 6.86231 2.64484 6.86231 2.70399C6.86231 2.73849 6.87181 2.76999 6.88581 2.79949V4.51799C6.88581 4.57872 6.87385 4.63887 6.8506 4.69498C6.82736 4.75109 6.79329 4.80208 6.75035 4.84503C6.7074 4.88797 6.65641 4.92204 6.6003 4.94528C6.54419 4.96853 6.48404 4.98049 6.42331 4.98049H5.60731C5.48345 4.98049 5.36467 4.93129 5.27709 4.84371C5.18951 4.75613 5.14031 4.63734 5.14031 4.51349V2.81199C5.16016 2.7794 5.17103 2.74214 5.17181 2.70399C5.17187 2.67468 5.16615 2.64566 5.15497 2.61857C5.14378 2.59149 5.12736 2.56688 5.10664 2.54616C5.08592 2.52544 5.06131 2.50901 5.03422 2.49783C5.00714 2.48665 4.97811 2.48092 4.94881 2.48099H1.83731C1.70589 2.48112 1.57988 2.53335 1.48691 2.62623C1.39393 2.71911 1.34157 2.84507 1.34131 2.97649V17.7435C1.34131 18.0175 1.56381 18.24 1.83731 18.24H18.1943C18.3258 18.2397 18.4518 18.1873 18.5447 18.0942C18.6376 18.0011 18.6898 17.875 18.6898 17.7435V2.97649C18.6895 2.84515 18.6373 2.71928 18.5444 2.62641C18.4515 2.53354 18.3256 2.48125 18.1943 2.48099ZM18.1943 17.794H1.83731C1.8307 17.794 1.82416 17.7927 1.81806 17.7901C1.81196 17.7876 1.80642 17.7839 1.80178 17.7792C1.79713 17.7745 1.79345 17.7689 1.79097 17.7628C1.78849 17.7567 1.78724 17.7501 1.78731 17.7435V6.60699H18.2438V17.743C18.2439 17.7496 18.2428 17.7562 18.2403 17.7623C18.2379 17.7685 18.2343 17.7741 18.2297 17.7788C18.2251 17.7836 18.2196 17.7873 18.2135 17.7899C18.2074 17.7926 18.2009 17.7939 18.1943 17.794Z" fill="#007CC7"/>
<path d="M6.0731 4.47199C6.1961 4.47199 6.2961 4.37199 6.2961 4.24899V1.24999C6.2961 1.22071 6.29033 1.19171 6.27912 1.16465C6.26792 1.1376 6.25149 1.11302 6.23078 1.09231C6.21008 1.0716 6.18549 1.05517 6.15844 1.04397C6.13138 1.03276 6.10238 1.02699 6.0731 1.02699C6.04381 1.02699 6.01481 1.03276 5.98776 1.04397C5.9607 1.05517 5.93612 1.0716 5.91541 1.09231C5.89471 1.11302 5.87828 1.1376 5.86707 1.16465C5.85587 1.19171 5.8501 1.22071 5.8501 1.24999V4.24949C5.8501 4.37249 5.9501 4.47199 6.0731 4.47199Z" fill="#007CC7"/>
<path d="M14.1502 4.47199C14.2732 4.47199 14.3732 4.37199 14.3732 4.24899V1.24999C14.3732 1.19085 14.3498 1.13413 14.3079 1.09231C14.2661 1.05049 14.2094 1.02699 14.1502 1.02699C14.0911 1.02699 14.0344 1.05049 13.9926 1.09231C13.9507 1.13413 13.9272 1.19085 13.9272 1.24999V4.24949C13.9272 4.37249 14.0267 4.47199 14.1502 4.47199Z" fill="#007CC7"/>
<path d="M4.92089 9.98049C5.59965 9.98049 6.14989 9.43025 6.14989 8.75149C6.14989 8.07273 5.59965 7.52249 4.92089 7.52249C4.24214 7.52249 3.69189 8.07273 3.69189 8.75149C3.69189 9.43025 4.24214 9.98049 4.92089 9.98049Z" fill="#007CC7"/>
<path d="M8.45263 9.98049C9.13139 9.98049 9.68163 9.43025 9.68163 8.75149C9.68163 8.07273 9.13139 7.52249 8.45263 7.52249C7.77387 7.52249 7.22363 8.07273 7.22363 8.75149C7.22363 9.43025 7.77387 9.98049 8.45263 9.98049Z" fill="#007CC7"/>
<path d="M11.9844 9.98049C12.6631 9.98049 13.2134 9.43025 13.2134 8.75149C13.2134 8.07273 12.6631 7.52249 11.9844 7.52249C11.3056 7.52249 10.7554 8.07273 10.7554 8.75149C10.7554 9.43025 11.3056 9.98049 11.9844 9.98049Z" fill="#007CC7"/>
<path d="M4.92089 13.403C5.59965 13.403 6.14989 12.8528 6.14989 12.174C6.14989 11.4952 5.59965 10.945 4.92089 10.945C4.24214 10.945 3.69189 11.4952 3.69189 12.174C3.69189 12.8528 4.24214 13.403 4.92089 13.403Z" fill="#007CC7"/>
<path d="M8.45263 13.403C9.13139 13.403 9.68163 12.8528 9.68163 12.174C9.68163 11.4952 9.13139 10.945 8.45263 10.945C7.77387 10.945 7.22363 11.4952 7.22363 12.174C7.22363 12.8528 7.77387 13.403 8.45263 13.403Z" fill="#007CC7"/>
<path d="M11.9844 13.403C12.6631 13.403 13.2134 12.8528 13.2134 12.174C13.2134 11.4952 12.6631 10.945 11.9844 10.945C11.3056 10.945 10.7554 11.4952 10.7554 12.174C10.7554 12.8528 11.3056 13.403 11.9844 13.403Z" fill="#007CC7"/>
<path d="M4.92089 16.8255C5.59965 16.8255 6.14989 16.2753 6.14989 15.5965C6.14989 14.9177 5.59965 14.3675 4.92089 14.3675C4.24214 14.3675 3.69189 14.9177 3.69189 15.5965C3.69189 16.2753 4.24214 16.8255 4.92089 16.8255Z" fill="#007CC7"/>
<path d="M8.45263 16.8255C9.13139 16.8255 9.68163 16.2753 9.68163 15.5965C9.68163 14.9177 9.13139 14.3675 8.45263 14.3675C7.77387 14.3675 7.22363 14.9177 7.22363 15.5965C7.22363 16.2753 7.77387 16.8255 8.45263 16.8255Z" fill="#007CC7"/>
<path d="M11.9844 16.8255C12.6631 16.8255 13.2134 16.2753 13.2134 15.5965C13.2134 14.9177 12.6631 14.3675 11.9844 14.3675C11.3056 14.3675 10.7554 14.9177 10.7554 15.5965C10.7554 16.2753 11.3056 16.8255 11.9844 16.8255Z" fill="#007CC7"/>
<path d="M15.4331 9.98049C16.1119 9.98049 16.6621 9.43025 16.6621 8.75149C16.6621 8.07273 16.1119 7.52249 15.4331 7.52249C14.7543 7.52249 14.2041 8.07273 14.2041 8.75149C14.2041 9.43025 14.7543 9.98049 15.4331 9.98049Z" fill="#007CC7"/>
<path d="M15.4331 13.403C16.1119 13.403 16.6621 12.8528 16.6621 12.174C16.6621 11.4952 16.1119 10.945 15.4331 10.945C14.7543 10.945 14.2041 11.4952 14.2041 12.174C14.2041 12.8528 14.7543 13.403 15.4331 13.403Z" fill="#007CC7"/>
<path d="M15.4331 16.8255C16.1119 16.8255 16.6621 16.2753 16.6621 15.5965C16.6621 14.9177 16.1119 14.3675 15.4331 14.3675C14.7543 14.3675 14.2041 14.9177 14.2041 15.5965C14.2041 16.2753 14.7543 16.8255 15.4331 16.8255Z" fill="#007CC7"/>
</svg>
