<svg width="20" height="20" viewBox="0 0 20 20" fill="none" xmlns="http://www.w3.org/2000/svg">
<path d="M18.1948 2.481H15.2418C15.1827 2.481 15.1259 2.5045 15.0841 2.54632C15.0423 2.58814 15.0188 2.64486 15.0188 2.704C15.0188 2.742 15.0308 2.776 15.0473 2.807V4.506C15.0474 4.56827 15.0351 4.62994 15.0113 4.68747C14.9876 4.74501 14.9526 4.79729 14.9086 4.84132C14.8646 4.88535 14.8123 4.92026 14.7548 4.94406C14.6972 4.96785 14.6356 4.98007 14.5733 4.98H13.6543C13.5965 4.98 13.5393 4.96862 13.4859 4.94651C13.4325 4.9244 13.384 4.89199 13.3432 4.85113C13.3023 4.81027 13.2699 4.76177 13.2478 4.70838C13.2257 4.655 13.2143 4.59778 13.2143 4.54V2.8345C13.2438 2.7973 13.2603 2.75147 13.2613 2.704C13.2614 2.6747 13.2556 2.64567 13.2445 2.61859C13.2333 2.5915 13.2168 2.56689 13.1961 2.54617C13.1754 2.52545 13.1508 2.50903 13.1237 2.49784C13.0966 2.48666 13.0676 2.48094 13.0383 2.481H7.0858C7.02665 2.481 6.96993 2.5045 6.92811 2.54632C6.88629 2.58814 6.8628 2.64486 6.8628 2.704C6.8628 2.7385 6.8723 2.77 6.8863 2.7995V4.518C6.8863 4.57874 6.87433 4.63888 6.85109 4.69499C6.82785 4.75111 6.79378 4.80209 6.75083 4.84504C6.70789 4.88799 6.6569 4.92206 6.60079 4.9453C6.54467 4.96854 6.48453 4.9805 6.4238 4.9805H5.6078C5.48394 4.9805 5.36516 4.9313 5.27758 4.84372C5.19 4.75614 5.1408 4.63736 5.1408 4.5135V2.812C5.16065 2.77942 5.17152 2.74215 5.1723 2.704C5.17236 2.6747 5.16664 2.64567 5.15546 2.61859C5.14427 2.5915 5.12785 2.56689 5.10713 2.54617C5.08641 2.52545 5.0618 2.50903 5.03471 2.49784C5.00763 2.48666 4.9786 2.48094 4.9493 2.481H1.8378C1.70638 2.48114 1.58037 2.53337 1.48739 2.62625C1.39442 2.71913 1.34206 2.84508 1.3418 2.9765V17.7435C1.3418 18.0175 1.5643 18.24 1.8378 18.24H18.1948C18.3263 18.2397 18.4523 18.1873 18.5452 18.0942C18.6381 18.0011 18.6903 17.875 18.6903 17.7435V2.9765C18.69 2.84517 18.6377 2.71929 18.5449 2.62642C18.452 2.53356 18.3261 2.48127 18.1948 2.481ZM18.1948 17.794H1.8378C1.83119 17.794 1.82465 17.7927 1.81855 17.7901C1.81245 17.7876 1.80691 17.7839 1.80226 17.7792C1.79761 17.7745 1.79394 17.7689 1.79146 17.7628C1.78898 17.7567 1.78773 17.7501 1.7878 17.7435V6.607H18.2443V17.743C18.2444 17.7496 18.2433 17.7562 18.2408 17.7623C18.2384 17.7685 18.2348 17.7741 18.2302 17.7788C18.2256 17.7836 18.2201 17.7874 18.214 17.79C18.2079 17.7926 18.2014 17.7939 18.1948 17.794Z" fill="#007CC7"/>
<path d="M6.07359 4.472C6.19659 4.472 6.29659 4.372 6.29659 4.249V1.25C6.29659 1.22072 6.29082 1.19172 6.27961 1.16466C6.2684 1.13761 6.25198 1.11302 6.23127 1.09232C6.21056 1.07161 6.18598 1.05518 6.15892 1.04398C6.13187 1.03277 6.10287 1.027 6.07359 1.027C6.0443 1.027 6.0153 1.03277 5.98825 1.04398C5.96119 1.05518 5.93661 1.07161 5.9159 1.09232C5.89519 1.11302 5.87877 1.13761 5.86756 1.16466C5.85635 1.19172 5.85059 1.22072 5.85059 1.25V4.2495C5.85059 4.3725 5.95059 4.472 6.07359 4.472Z" fill="#007CC7"/>
<path d="M14.1507 4.472C14.2737 4.472 14.3737 4.372 14.3737 4.249V1.25C14.3737 1.19086 14.3502 1.13414 14.3084 1.09232C14.2666 1.0505 14.2099 1.027 14.1507 1.027C14.0916 1.027 14.0349 1.0505 13.993 1.09232C13.9512 1.13414 13.9277 1.19086 13.9277 1.25V4.2495C13.9277 4.3725 14.0272 4.472 14.1507 4.472Z" fill="#007CC7"/>
<path d="M4.92138 9.9805C5.60014 9.9805 6.15038 9.43026 6.15038 8.7515C6.15038 8.07274 5.60014 7.5225 4.92138 7.5225C4.24262 7.5225 3.69238 8.07274 3.69238 8.7515C3.69238 9.43026 4.24262 9.9805 4.92138 9.9805Z" fill="#007CC7"/>
<path d="M8.45361 9.9805C9.13237 9.9805 9.68261 9.43026 9.68261 8.7515C9.68261 8.07274 9.13237 7.5225 8.45361 7.5225C7.77485 7.5225 7.22461 8.07274 7.22461 8.7515C7.22461 9.43026 7.77485 9.9805 8.45361 9.9805Z" fill="#007CC7"/>
<path d="M11.9849 9.9805C12.6636 9.9805 13.2139 9.43026 13.2139 8.7515C13.2139 8.07274 12.6636 7.5225 11.9849 7.5225C11.3061 7.5225 10.7559 8.07274 10.7559 8.7515C10.7559 9.43026 11.3061 9.9805 11.9849 9.9805Z" fill="#007CC7"/>
<path d="M4.92138 13.403C5.60014 13.403 6.15038 12.8528 6.15038 12.174C6.15038 11.4952 5.60014 10.945 4.92138 10.945C4.24262 10.945 3.69238 11.4952 3.69238 12.174C3.69238 12.8528 4.24262 13.403 4.92138 13.403Z" fill="#007CC7"/>
<path d="M8.45361 13.403C9.13237 13.403 9.68261 12.8528 9.68261 12.174C9.68261 11.4952 9.13237 10.945 8.45361 10.945C7.77485 10.945 7.22461 11.4952 7.22461 12.174C7.22461 12.8528 7.77485 13.403 8.45361 13.403Z" fill="#007CC7"/>
<path d="M11.9849 13.403C12.6636 13.403 13.2139 12.8528 13.2139 12.174C13.2139 11.4952 12.6636 10.945 11.9849 10.945C11.3061 10.945 10.7559 11.4952 10.7559 12.174C10.7559 12.8528 11.3061 13.403 11.9849 13.403Z" fill="#007CC7"/>
<path d="M4.92138 16.8255C5.60014 16.8255 6.15038 16.2753 6.15038 15.5965C6.15038 14.9177 5.60014 14.3675 4.92138 14.3675C4.24262 14.3675 3.69238 14.9177 3.69238 15.5965C3.69238 16.2753 4.24262 16.8255 4.92138 16.8255Z" fill="#007CC7"/>
<path d="M8.45361 16.8255C9.13237 16.8255 9.68261 16.2753 9.68261 15.5965C9.68261 14.9177 9.13237 14.3675 8.45361 14.3675C7.77485 14.3675 7.22461 14.9177 7.22461 15.5965C7.22461 16.2753 7.77485 16.8255 8.45361 16.8255Z" fill="#007CC7"/>
<path d="M11.9849 16.8255C12.6636 16.8255 13.2139 16.2753 13.2139 15.5965C13.2139 14.9177 12.6636 14.3675 11.9849 14.3675C11.3061 14.3675 10.7559 14.9177 10.7559 15.5965C10.7559 16.2753 11.3061 16.8255 11.9849 16.8255Z" fill="#007CC7"/>
<path d="M15.4341 9.9805C16.1128 9.9805 16.6631 9.43026 16.6631 8.7515C16.6631 8.07274 16.1128 7.5225 15.4341 7.5225C14.7553 7.5225 14.2051 8.07274 14.2051 8.7515C14.2051 9.43026 14.7553 9.9805 15.4341 9.9805Z" fill="#007CC7"/>
<path d="M15.4341 13.403C16.1128 13.403 16.6631 12.8528 16.6631 12.174C16.6631 11.4952 16.1128 10.945 15.4341 10.945C14.7553 10.945 14.2051 11.4952 14.2051 12.174C14.2051 12.8528 14.7553 13.403 15.4341 13.403Z" fill="#007CC7"/>
<path d="M15.4341 16.8255C16.1128 16.8255 16.6631 16.2753 16.6631 15.5965C16.6631 14.9177 16.1128 14.3675 15.4341 14.3675C14.7553 14.3675 14.2051 14.9177 14.2051 15.5965C14.2051 16.2753 14.7553 16.8255 15.4341 16.8255Z" fill="#007CC7"/>
</svg>
