<svg width="20" height="20" viewBox="0 0 20 20" fill="none" xmlns="http://www.w3.org/2000/svg">
<path d="M10 17.5C14.1421 17.5 17.5 14.1421 17.5 10C17.5 5.85786 14.1421 2.5 10 2.5C5.85786 2.5 2.5 5.85786 2.5 10C2.5 14.1421 5.85786 17.5 10 17.5Z" stroke="#007CC7" stroke-width="2" stroke-linecap="round" stroke-linejoin="round"/>
<path d="M9.99967 11.6666C10.9201 11.6666 11.6663 10.9205 11.6663 9.99998C11.6663 9.0795 10.9201 8.33331 9.99967 8.33331C9.0792 8.33331 8.33301 9.0795 8.33301 9.99998C8.33301 10.9205 9.0792 11.6666 9.99967 11.6666Z" stroke="#007CC7" stroke-width="2" stroke-linecap="round" stroke-linejoin="round"/>
<path d="M10 11.6667V17.5" stroke="#007CC7" stroke-width="2" stroke-linecap="round" stroke-linejoin="round"/>
<path d="M8.33301 9.99998L2.70801 8.33331" stroke="#007CC7" stroke-width="2" stroke-linecap="round" stroke-linejoin="round"/>
<path d="M11.667 9.99998L17.292 8.33331" stroke="#007CC7" stroke-width="2" stroke-linecap="round" stroke-linejoin="round"/>
</svg>
