<svg width="20" height="20" viewBox="0 0 20 20" fill="none" xmlns="http://www.w3.org/2000/svg">
<path d="M10 17.5C14.1421 17.5 17.5 14.1421 17.5 10C17.5 5.85786 14.1421 2.5 10 2.5C5.85786 2.5 2.5 5.85786 2.5 10C2.5 14.1421 5.85786 17.5 10 17.5Z" stroke="#007CC7" stroke-width="2" stroke-linecap="round" stroke-linejoin="round"/>
<path d="M10 11.6666C10.9205 11.6666 11.6667 10.9204 11.6667 9.99992C11.6667 9.07944 10.9205 8.33325 10 8.33325C9.07957 8.33325 8.33337 9.07944 8.33337 9.99992C8.33337 10.9204 9.07957 11.6666 10 11.6666Z" stroke="#007CC7" stroke-width="2" stroke-linecap="round" stroke-linejoin="round"/>
<path d="M10 11.6667V17.5001" stroke="#007CC7" stroke-width="2" stroke-linecap="round" stroke-linejoin="round"/>
<path d="M8.33337 9.99992L2.70837 8.33325" stroke="#007CC7" stroke-width="2" stroke-linecap="round" stroke-linejoin="round"/>
<path d="M11.6666 9.99992L17.2916 8.33325" stroke="#007CC7" stroke-width="2" stroke-linecap="round" stroke-linejoin="round"/>
</svg>
