<svg width="24" height="24" viewBox="0 0 24 24" fill="none" xmlns="http://www.w3.org/2000/svg">
<path d="M22.9024 5.81639C22.6407 4.7078 21.8696 3.8347 20.8906 3.53841C19.116 3 12.0001 3 12.0001 3C12.0001 3 4.88428 3 3.10965 3.53841C2.13061 3.83475 1.35952 4.7078 1.09781 5.81639C0.622314 7.82578 0.622314 12.0182 0.622314 12.0182C0.622314 12.0182 0.622314 16.2106 1.09781 18.22C1.35952 19.3286 2.13061 20.1653 3.10965 20.4616C4.88428 21 12.0001 21 12.0001 21C12.0001 21 19.116 21 20.8906 20.4616C21.8696 20.1653 22.6407 19.3286 22.9024 18.22C23.3779 16.2106 23.3779 12.0182 23.3779 12.0182C23.3779 12.0182 23.3779 7.82578 22.9024 5.81639ZM9.67282 15.8246V8.2118L15.6203 12.0183L9.67282 15.8246Z" fill="white"/>
</svg>
