<svg width="25" height="24" viewBox="0 0 25 24" fill="none" xmlns="http://www.w3.org/2000/svg">
<path d="M21.667 4.5H3.66699C3.26917 4.5 2.88764 4.65804 2.60633 4.93934C2.32503 5.22064 2.16699 5.60218 2.16699 6V18C2.16699 18.3978 2.32503 18.7794 2.60633 19.0607C2.88764 19.342 3.26917 19.5 3.66699 19.5H21.667C22.0648 19.5 22.4463 19.342 22.7277 19.0607C23.009 18.7794 23.167 18.3978 23.167 18V6C23.167 5.60218 23.009 5.22064 22.7277 4.93934C22.4463 4.65804 22.0648 4.5 21.667 4.5ZM20.017 6L12.667 11.085L5.31699 6H20.017ZM3.66699 18V6.6825L12.2395 12.615C12.365 12.7021 12.5142 12.7488 12.667 12.7488C12.8198 12.7488 12.9689 12.7021 13.0945 12.615L21.667 6.6825V18H3.66699Z" fill="white"></path>
</svg>
