<svg width="25" height="24" viewBox="0 0 25 24" fill="none" xmlns="http://www.w3.org/2000/svg">
<path d="M21.6667 4.5H3.66675C3.26892 4.5 2.88739 4.65804 2.60609 4.93934C2.32478 5.22064 2.16675 5.60218 2.16675 6V18C2.16675 18.3978 2.32478 18.7794 2.60609 19.0607C2.88739 19.342 3.26892 19.5 3.66675 19.5H21.6667C22.0646 19.5 22.4461 19.342 22.7274 19.0607C23.0087 18.7794 23.1667 18.3978 23.1667 18V6C23.1667 5.60218 23.0087 5.22064 22.7274 4.93934C22.4461 4.65804 22.0646 4.5 21.6667 4.5ZM20.0167 6L12.6667 11.085L5.31675 6H20.0167ZM3.66675 18V6.6825L12.2392 12.615C12.3648 12.7021 12.5139 12.7488 12.6667 12.7488C12.8195 12.7488 12.9687 12.7021 13.0942 12.615L21.6667 6.6825V18H3.66675Z" fill="white"></path>
</svg>
