<svg width="20" height="20" viewBox="0 0 20 20" fill="none" xmlns="http://www.w3.org/2000/svg">
<path d="M11.1781 18.8889H3.2781C3.06893 18.8956 2.86054 18.8602 2.66533 18.7847C2.47011 18.7093 2.29207 18.5953 2.14176 18.4497C1.99146 18.3041 1.87198 18.1297 1.79042 17.937C1.70886 17.7442 1.66689 17.537 1.66699 17.3278V2.69999C1.68291 2.27358 1.86734 1.87091 2.17979 1.58033C2.49225 1.28974 2.90723 1.13497 3.33366 1.14999H11.2337C11.4382 1.1454 11.6415 1.18241 11.8314 1.25875C12.0212 1.33509 12.1935 1.44919 12.3379 1.59412C12.4823 1.73905 12.5958 1.9118 12.6715 2.10189C12.7471 2.29198 12.7834 2.49546 12.7781 2.69999V17.3278C12.7774 17.5359 12.7353 17.7417 12.6541 17.9334C12.573 18.125 12.4545 18.2986 12.3055 18.4439C12.1566 18.5892 11.9802 18.7034 11.7866 18.7798C11.593 18.8562 11.3862 18.8933 11.1781 18.8889ZM3.2781 2.22221C3.21371 2.21998 3.14952 2.23065 3.08931 2.2536C3.02909 2.27654 2.97408 2.31129 2.92749 2.35581C2.88091 2.40032 2.84369 2.4537 2.81804 2.51281C2.79238 2.57192 2.77881 2.63555 2.7781 2.69999V17.3278C2.7781 17.456 2.82903 17.5789 2.91967 17.6695C3.01031 17.7602 3.13325 17.8111 3.26144 17.8111H11.1781C11.3111 17.8129 11.4397 17.7639 11.5378 17.674C11.6359 17.5842 11.696 17.4604 11.7059 17.3278V2.69999C11.6947 2.56836 11.634 2.44588 11.536 2.35723C11.4381 2.26857 11.3102 2.22032 11.1781 2.22221H3.2781Z" fill="#007CC7"></path>
<path d="M16.4056 18.8889C16.1489 18.8911 15.8942 18.8424 15.6564 18.7457C15.4186 18.649 15.2022 18.5061 15.0199 18.3253C14.8376 18.1446 14.6929 17.9295 14.5941 17.6924C14.4953 17.4554 14.4445 17.2012 14.4445 16.9445V12.7778C14.4445 12.4831 14.3274 12.2005 14.1191 11.9921C13.9107 11.7838 13.6281 11.6667 13.3334 11.6667H12.539C12.3916 11.6667 12.2503 11.6082 12.1461 11.504C12.0419 11.3998 11.9834 11.2585 11.9834 11.1111C11.9834 10.9638 12.0419 10.8225 12.1461 10.7183C12.2503 10.6141 12.3916 10.5556 12.539 10.5556H13.3334C13.9228 10.5556 14.488 10.7897 14.9047 11.2065C15.3215 11.6232 15.5556 12.1884 15.5556 12.7778V16.9445C15.5556 17.1655 15.6434 17.3774 15.7997 17.5337C15.956 17.69 16.1679 17.7778 16.389 17.7778C16.61 17.7778 16.8219 17.69 16.9782 17.5337C17.1345 17.3774 17.2223 17.1655 17.2223 16.9445V9.61114L15.4834 5.72225C15.3795 5.50554 15.2163 5.32269 15.0128 5.19487C14.8093 5.06705 14.5737 4.9995 14.3334 5.00003H13.9278C13.7805 5.00003 13.6392 4.9415 13.535 4.83731C13.4308 4.73312 13.3723 4.59181 13.3723 4.44447C13.3723 4.29713 13.4308 4.15582 13.535 4.05163C13.6392 3.94745 13.7805 3.88892 13.9278 3.88892H14.3334C14.7953 3.88868 15.2474 4.02237 15.6349 4.27381C16.0224 4.52524 16.3287 4.88364 16.5167 5.30558L18.3001 9.28336C18.3327 9.35489 18.3497 9.43253 18.3501 9.51114V16.9445C18.3501 17.4602 18.1452 17.9547 17.7806 18.3194C17.4159 18.6841 16.9213 18.8889 16.4056 18.8889Z" fill="#007CC7"></path>
<path d="M9.99978 5.00003H4.44423C4.29688 5.00003 4.15558 4.9415 4.05139 4.83731C3.9472 4.73312 3.88867 4.59181 3.88867 4.44447C3.88867 4.29713 3.9472 4.15582 4.05139 4.05163C4.15558 3.94745 4.29688 3.88892 4.44423 3.88892H9.99978C10.1471 3.88892 10.2884 3.94745 10.3926 4.05163C10.4968 4.15582 10.5553 4.29713 10.5553 4.44447C10.5553 4.59181 10.4968 4.73312 10.3926 4.83731C10.2884 4.9415 10.1471 5.00003 9.99978 5.00003Z" fill="#007CC7"></path>
<path d="M9.99978 7.2222H4.44423C4.29688 7.2222 4.15558 7.16366 4.05139 7.05948C3.9472 6.95529 3.88867 6.81398 3.88867 6.66664C3.88867 6.5193 3.9472 6.37799 4.05139 6.2738C4.15558 6.16962 4.29688 6.11108 4.44423 6.11108H9.99978C10.1471 6.11108 10.2884 6.16962 10.3926 6.2738C10.4968 6.37799 10.5553 6.5193 10.5553 6.66664C10.5553 6.81398 10.4968 6.95529 10.3926 7.05948C10.2884 7.16366 10.1471 7.2222 9.99978 7.2222Z" fill="#007CC7"></path>
<path d="M13.8886 6.71111C13.7412 6.71111 13.5999 6.65258 13.4957 6.54839C13.3915 6.4442 13.333 6.30289 13.333 6.15555V2.82222C13.333 2.67488 13.3915 2.53357 13.4957 2.42938C13.5999 2.32519 13.7412 2.26666 13.8886 2.26666C14.0359 2.26666 14.1772 2.32519 14.2814 2.42938C14.3856 2.53357 14.4441 2.67488 14.4441 2.82222V6.15555C14.4441 6.30289 14.3856 6.4442 14.2814 6.54839C14.1772 6.65258 14.0359 6.71111 13.8886 6.71111Z" fill="#007CC7"></path>
</svg>
