<svg width="20" height="20" viewBox="0 0 20 20" fill="none" xmlns="http://www.w3.org/2000/svg">
<path d="M11.1777 18.8888H3.27774C3.06856 18.8955 2.86017 18.8601 2.66496 18.7846C2.46975 18.7092 2.2917 18.5953 2.1414 18.4496C1.9911 18.304 1.87162 18.1296 1.79005 17.9369C1.70849 17.7442 1.66652 17.537 1.66663 17.3277V2.69992C1.68255 2.27352 1.86697 1.87085 2.17943 1.58027C2.49189 1.28968 2.90686 1.13491 3.33329 1.14992H11.2333C11.4378 1.14534 11.6412 1.18234 11.831 1.25869C12.0208 1.33503 12.1932 1.44913 12.3376 1.59406C12.482 1.73899 12.5955 1.91174 12.6711 2.10183C12.7468 2.29192 12.7831 2.4954 12.7777 2.69992V17.3277C12.777 17.5358 12.7349 17.7417 12.6538 17.9333C12.5726 18.125 12.4541 18.2985 12.3052 18.4438C12.1562 18.5892 11.9798 18.7034 11.7862 18.7798C11.5927 18.8562 11.3858 18.8932 11.1777 18.8888ZM3.27774 2.22215C3.21334 2.21992 3.14915 2.23059 3.08894 2.25354C3.02873 2.27648 2.97371 2.31123 2.92713 2.35575C2.88054 2.40026 2.84333 2.45364 2.81767 2.51275C2.79202 2.57185 2.77844 2.63549 2.77774 2.69992V17.3277C2.77774 17.4559 2.82866 17.5788 2.9193 17.6695C3.00995 17.7601 3.13288 17.811 3.26107 17.811H11.1777C11.3107 17.8128 11.4394 17.7638 11.5374 17.674C11.6355 17.5842 11.6956 17.4603 11.7055 17.3277V2.69992C11.6943 2.5683 11.6336 2.44582 11.5357 2.35717C11.4377 2.26851 11.3098 2.22026 11.1777 2.22215H3.27774Z" fill="#007CC7"></path>
<path d="M16.4055 18.8889C16.1488 18.8911 15.8941 18.8424 15.6563 18.7457C15.4184 18.649 15.2021 18.5061 15.0198 18.3253C14.8375 18.1446 14.6927 17.9295 14.594 17.6924C14.4952 17.4554 14.4444 17.2012 14.4444 16.9445V12.7778C14.4444 12.4831 14.3273 12.2005 14.119 11.9921C13.9106 11.7838 13.628 11.6667 13.3333 11.6667H12.5388C12.3915 11.6667 12.2502 11.6082 12.146 11.504C12.0418 11.3998 11.9833 11.2585 11.9833 11.1111C11.9833 10.9638 12.0418 10.8225 12.146 10.7183C12.2502 10.6141 12.3915 10.5556 12.5388 10.5556H13.3333C13.9226 10.5556 14.4879 10.7897 14.9046 11.2065C15.3214 11.6232 15.5555 12.1884 15.5555 12.7778V16.9445C15.5555 17.1655 15.6433 17.3774 15.7996 17.5337C15.9559 17.69 16.1678 17.7778 16.3888 17.7778C16.6098 17.7778 16.8218 17.69 16.9781 17.5337C17.1344 17.3774 17.2222 17.1655 17.2222 16.9445V9.61114L15.4833 5.72225C15.3794 5.50554 15.2162 5.32269 15.0127 5.19487C14.8092 5.06705 14.5736 4.9995 14.3333 5.00003H13.9277C13.7804 5.00003 13.6391 4.9415 13.5349 4.83731C13.4307 4.73312 13.3722 4.59181 13.3722 4.44447C13.3722 4.29713 13.4307 4.15582 13.5349 4.05163C13.6391 3.94745 13.7804 3.88892 13.9277 3.88892H14.3333C14.7952 3.88868 15.2473 4.02237 15.6348 4.27381C16.0223 4.52524 16.3286 4.88364 16.5166 5.30558L18.2999 9.28336C18.3325 9.35489 18.3496 9.43253 18.3499 9.51114V16.9445C18.3499 17.4602 18.1451 17.9547 17.7804 18.3194C17.4158 18.6841 16.9212 18.8889 16.4055 18.8889Z" fill="#007CC7"></path>
<path d="M10 5.00003H4.44447C4.29713 5.00003 4.15582 4.9415 4.05163 4.83731C3.94745 4.73312 3.88892 4.59181 3.88892 4.44447C3.88892 4.29713 3.94745 4.15582 4.05163 4.05163C4.15582 3.94745 4.29713 3.88892 4.44447 3.88892H10C10.1474 3.88892 10.2887 3.94745 10.3929 4.05163C10.4971 4.15582 10.5556 4.29713 10.5556 4.44447C10.5556 4.59181 10.4971 4.73312 10.3929 4.83731C10.2887 4.9415 10.1474 5.00003 10 5.00003Z" fill="#007CC7"></path>
<path d="M10 7.2222H4.44447C4.29713 7.2222 4.15582 7.16366 4.05163 7.05948C3.94745 6.95529 3.88892 6.81398 3.88892 6.66664C3.88892 6.5193 3.94745 6.37799 4.05163 6.2738C4.15582 6.16962 4.29713 6.11108 4.44447 6.11108H10C10.1474 6.11108 10.2887 6.16962 10.3929 6.2738C10.4971 6.37799 10.5556 6.5193 10.5556 6.66664C10.5556 6.81398 10.4971 6.95529 10.3929 7.05948C10.2887 7.16366 10.1474 7.2222 10 7.2222Z" fill="#007CC7"></path>
<path d="M13.8889 6.71105C13.7416 6.71105 13.6003 6.65251 13.4961 6.54833C13.3919 6.44414 13.3334 6.30283 13.3334 6.15549V2.82216C13.3334 2.67481 13.3919 2.53351 13.4961 2.42932C13.6003 2.32513 13.7416 2.2666 13.8889 2.2666C14.0363 2.2666 14.1776 2.32513 14.2818 2.42932C14.386 2.53351 14.4445 2.67481 14.4445 2.82216V6.15549C14.4445 6.30283 14.386 6.44414 14.2818 6.54833C14.1776 6.65251 14.0363 6.71105 13.8889 6.71105Z" fill="#007CC7"></path>
</svg>
