<svg width="20" height="20" viewBox="0 0 20 20" fill="none" xmlns="http://www.w3.org/2000/svg">
<path d="M11.1779 18.8888H3.27786C3.06868 18.8955 2.86029 18.8601 2.66508 18.7846C2.46987 18.7092 2.29182 18.5953 2.14152 18.4496C1.99122 18.304 1.87174 18.1296 1.79018 17.9369C1.70862 17.7442 1.66664 17.537 1.66675 17.3277V2.69992C1.68267 2.27352 1.86709 1.87085 2.17955 1.58027C2.49201 1.28968 2.90698 1.13491 3.33342 1.14992H11.2334C11.438 1.14534 11.6413 1.18234 11.8311 1.25869C12.0209 1.33503 12.1933 1.44913 12.3377 1.59406C12.4821 1.73899 12.5956 1.91174 12.6712 2.10183C12.7469 2.29192 12.7832 2.4954 12.7779 2.69992V17.3277C12.7772 17.5358 12.735 17.7417 12.6539 17.9333C12.5727 18.125 12.4542 18.2985 12.3053 18.4438C12.1563 18.5892 11.9799 18.7034 11.7864 18.7798C11.5928 18.8562 11.3859 18.8932 11.1779 18.8888ZM3.27786 2.22215C3.21346 2.21992 3.14927 2.23059 3.08906 2.25354C3.02885 2.27648 2.97383 2.31123 2.92725 2.35575C2.88066 2.40026 2.84345 2.45364 2.81779 2.51275C2.79214 2.57185 2.77856 2.63549 2.77786 2.69992V17.3277C2.77786 17.4559 2.82878 17.5788 2.91942 17.6695C3.01007 17.7601 3.133 17.811 3.26119 17.811H11.1779C11.3108 17.8128 11.4395 17.7638 11.5376 17.674C11.6356 17.5842 11.6957 17.4603 11.7056 17.3277V2.69992C11.6944 2.5683 11.6337 2.44582 11.5358 2.35717C11.4378 2.26851 11.3099 2.22026 11.1779 2.22215H3.27786Z" fill="#007CC7"></path>
<path d="M16.4056 18.8889C16.1489 18.8911 15.8942 18.8424 15.6564 18.7457C15.4186 18.649 15.2022 18.5061 15.0199 18.3253C14.8376 18.1446 14.6929 17.9295 14.5941 17.6924C14.4953 17.4554 14.4445 17.2012 14.4445 16.9445V12.7778C14.4445 12.4831 14.3274 12.2005 14.1191 11.9921C13.9107 11.7838 13.6281 11.6667 13.3334 11.6667H12.539C12.3916 11.6667 12.2503 11.6082 12.1461 11.504C12.0419 11.3998 11.9834 11.2585 11.9834 11.1111C11.9834 10.9638 12.0419 10.8225 12.1461 10.7183C12.2503 10.6141 12.3916 10.5556 12.539 10.5556H13.3334C13.9228 10.5556 14.488 10.7897 14.9047 11.2065C15.3215 11.6232 15.5556 12.1884 15.5556 12.7778V16.9445C15.5556 17.1655 15.6434 17.3774 15.7997 17.5337C15.956 17.69 16.1679 17.7778 16.389 17.7778C16.61 17.7778 16.8219 17.69 16.9782 17.5337C17.1345 17.3774 17.2223 17.1655 17.2223 16.9445V9.61114L15.4834 5.72225C15.3795 5.50554 15.2163 5.32269 15.0128 5.19487C14.8093 5.06705 14.5737 4.9995 14.3334 5.00003H13.9278C13.7805 5.00003 13.6392 4.9415 13.535 4.83731C13.4308 4.73312 13.3723 4.59181 13.3723 4.44447C13.3723 4.29713 13.4308 4.15582 13.535 4.05163C13.6392 3.94745 13.7805 3.88892 13.9278 3.88892H14.3334C14.7953 3.88868 15.2474 4.02237 15.6349 4.27381C16.0224 4.52524 16.3287 4.88364 16.5167 5.30558L18.3001 9.28336C18.3327 9.35489 18.3497 9.43253 18.3501 9.51114V16.9445C18.3501 17.4602 18.1452 17.9547 17.7806 18.3194C17.4159 18.6841 16.9213 18.8889 16.4056 18.8889Z" fill="#007CC7"></path>
<path d="M10 5.00003H4.44447C4.29713 5.00003 4.15582 4.9415 4.05163 4.83731C3.94745 4.73312 3.88892 4.59181 3.88892 4.44447C3.88892 4.29713 3.94745 4.15582 4.05163 4.05163C4.15582 3.94745 4.29713 3.88892 4.44447 3.88892H10C10.1474 3.88892 10.2887 3.94745 10.3929 4.05163C10.4971 4.15582 10.5556 4.29713 10.5556 4.44447C10.5556 4.59181 10.4971 4.73312 10.3929 4.83731C10.2887 4.9415 10.1474 5.00003 10 5.00003Z" fill="#007CC7"></path>
<path d="M10 7.2222H4.44447C4.29713 7.2222 4.15582 7.16366 4.05163 7.05948C3.94745 6.95529 3.88892 6.81398 3.88892 6.66664C3.88892 6.5193 3.94745 6.37799 4.05163 6.2738C4.15582 6.16962 4.29713 6.11108 4.44447 6.11108H10C10.1474 6.11108 10.2887 6.16962 10.3929 6.2738C10.4971 6.37799 10.5556 6.5193 10.5556 6.66664C10.5556 6.81398 10.4971 6.95529 10.3929 7.05948C10.2887 7.16366 10.1474 7.2222 10 7.2222Z" fill="#007CC7"></path>
<path d="M13.8888 6.71105C13.7415 6.71105 13.6002 6.65251 13.496 6.54833C13.3918 6.44414 13.3333 6.30283 13.3333 6.15549V2.82216C13.3333 2.67481 13.3918 2.53351 13.496 2.42932C13.6002 2.32513 13.7415 2.2666 13.8888 2.2666C14.0361 2.2666 14.1775 2.32513 14.2816 2.42932C14.3858 2.53351 14.4444 2.67481 14.4444 2.82216V6.15549C14.4444 6.30283 14.3858 6.44414 14.2816 6.54833C14.1775 6.65251 14.0361 6.71105 13.8888 6.71105Z" fill="#007CC7"></path>
</svg>
