<svg width="72" height="72" viewBox="0 0 72 72" fill="none" xmlns="http://www.w3.org/2000/svg">
<g clip-path="url('#clip0_2_2491')">
<path d="M61.8772 24.7558L61.8812 24.7656H61.8917H70.311C71.3991 24.7656 72.1974 25.7883 71.9341 26.8429L71.0903 30.2179C70.905 30.9619 70.2363 31.4844 69.4686 31.4844H66.6463H66.6046L66.636 31.5118C68.52 33.1586 69.7342 35.552 69.7342 38.25V45C69.7342 47.2642 68.8696 49.3067 67.4881 50.8861L67.4842 50.8827V50.8964V58.5C67.4842 60.9762 65.4761 62.9844 62.9999 62.9844H58.4999C56.0236 62.9844 54.0155 60.9762 54.0155 58.5V54V53.9844H53.9999H17.9999H17.9842V54V58.5C17.9842 60.9762 15.9761 62.9844 13.4999 62.9844H8.99986C6.52364 62.9844 4.51548 60.9762 4.51548 58.5V50.8964H4.52061L4.51162 50.8861C3.13014 49.3053 2.26548 47.2628 2.26548 45V38.25C2.26548 35.552 3.47968 33.1586 5.36513 31.5118L5.3965 31.4844H5.35486H2.53251C1.76483 31.4844 1.09609 30.9619 0.910798 30.2179L0.895636 30.2217L0.910794 30.2179L0.0670445 26.8429L0.067041 26.8429C-0.197667 25.7883 0.600637 24.7656 1.68876 24.7656H10.1066H10.1172L10.1211 24.7558L12.4611 18.9058C14.8648 12.8972 20.5994 9.01562 27.0702 9.01562H44.9295C51.4017 9.01562 57.1349 12.8972 59.5372 18.9058L61.8772 24.7558ZM53.9999 29.2656H54.0229L54.0144 29.2442L51.2117 22.2369C50.1842 19.6687 47.6964 17.9844 44.9295 17.9844H27.0702C24.3033 17.9844 21.8155 19.6687 20.788 22.2369L17.9853 29.2442L17.9768 29.2656H17.9999H53.9999ZM8.98423 40.4859C8.98423 41.8353 9.43549 42.9609 10.2263 43.7493C11.0172 44.5377 12.1463 44.9875 13.4999 44.9875C13.8267 44.9875 14.1737 44.9941 14.531 45.0009C15.6477 45.0221 16.8659 45.0453 17.8899 44.8751C18.566 44.7628 19.1597 44.566 19.5846 44.2271C20.0103 43.8876 20.2655 43.4064 20.2655 42.7289C20.2655 42.0524 20.0111 41.2927 19.5885 40.5344C19.1658 39.7759 18.5742 39.0178 17.8984 38.3441C17.2225 37.6703 16.462 37.0806 15.7012 36.6592C14.9405 36.238 14.1785 35.9844 13.4999 35.9844C12.1463 35.9844 11.0172 36.4342 10.2263 37.2226C9.43549 38.0109 8.98423 39.1366 8.98423 40.4859ZM51.7342 42.7289C51.7342 43.4064 51.9894 43.8876 52.4151 44.2271C52.84 44.566 53.4337 44.7628 54.1098 44.8751C55.1338 45.0453 56.352 45.0221 57.4687 45.0009C57.826 44.9941 58.173 44.9875 58.4999 44.9875C59.8534 44.9875 60.9826 44.5377 61.7734 43.7493C62.5642 42.9609 63.0155 41.8353 63.0155 40.4859C63.0155 39.1366 62.5642 38.0109 61.7734 37.2226C60.9826 36.4342 59.8534 35.9844 58.4999 35.9844C57.8212 35.9844 57.0592 36.238 56.2985 36.6592C55.5377 37.0806 54.7772 37.6703 54.1013 38.3441C53.4255 39.0178 52.8339 39.7759 52.4112 40.5344C51.9886 41.2927 51.7342 42.0524 51.7342 42.7289Z" fill="#989898" stroke="#676767" stroke-width="0.03125"></path>
</g>
<defs>
<clipPath id="clip0_2_2491">
<rect width="72" height="72" fill="white"></rect>
</clipPath>
</defs>
</svg>
