<svg width="145" height="29" viewBox="0 0 145 29" fill="none" xmlns="http://www.w3.org/2000/svg">
<g clip-path="url('#clip0_2_2018')">
<path d="M142.583 11.165L133.895 10.4159L130.5 2.41669L127.104 10.4279L118.417 11.165L125.014 16.8804L123.032 25.375L130.5 20.8679L137.967 25.375L135.998 16.8804L142.583 11.165ZM130.5 18.6084L125.957 21.3513L127.165 16.1796L123.153 12.6996L128.446 12.2404L130.5 7.37085L132.566 12.2525L137.859 12.7117L133.847 16.1917L135.055 21.3634L130.5 18.6084Z" fill="white"></path>
</g>
<g clip-path="url('#clip1_2_2018')">
<path d="M113.583 11.165L104.895 10.4159L101.5 2.41669L98.1044 10.4279L89.4165 11.165L96.014 16.8804L94.0323 25.375L101.5 20.8679L108.967 25.375L106.998 16.8804L113.583 11.165ZM101.5 18.6084L96.9565 21.3513L98.1648 16.1796L94.1532 12.6996L99.4457 12.2404L101.5 7.37085L103.566 12.2525L108.859 12.7117L104.847 16.1917L106.055 21.3634L101.5 18.6084Z" fill="white"></path>
</g>
<g clip-path="url('#clip2_2_2018')">
<path d="M84.5832 11.165L75.8953 10.4159L72.4998 2.41669L69.1044 10.4279L60.4165 11.165L67.014 16.8804L65.0323 25.375L72.4998 20.8679L79.9673 25.375L77.9978 16.8804L84.5832 11.165ZM72.4998 18.6084L67.9565 21.3513L69.1648 16.1796L65.1532 12.6996L70.4457 12.2404L72.4998 7.37085L74.5661 12.2525L79.8586 12.7117L75.8469 16.1917L77.0553 21.3634L72.4998 18.6084Z" fill="white"></path>
</g>
<g clip-path="url('#clip3_2_2018')">
<path d="M55.5832 11.165L46.8953 10.4159L43.4998 2.41669L40.1044 10.4279L31.4165 11.165L38.014 16.8804L36.0323 25.375L43.4998 20.8679L50.9673 25.375L48.9978 16.8804L55.5832 11.165ZM43.4998 18.6084L38.9565 21.3513L40.1648 16.1796L36.1532 12.6996L41.4457 12.2404L43.4998 7.37085L45.5661 12.2525L50.8586 12.7117L46.8469 16.1917L48.0553 21.3634L43.4998 18.6084Z" fill="white"></path>
</g>
<g clip-path="url('#clip4_2_2018')">
<path d="M26.5832 11.165L17.8953 10.4159L14.4998 2.41669L11.1044 10.4279L2.4165 11.165L9.014 16.8804L7.03234 25.375L14.4998 20.8679L21.9673 25.375L19.9978 16.8804L26.5832 11.165ZM14.4998 18.6084L9.9565 21.3513L11.1648 16.1796L7.15317 12.6996L12.4457 12.2404L14.4998 7.37085L16.5661 12.2525L21.8586 12.7117L17.8469 16.1917L19.0553 21.3634L14.4998 18.6084Z" fill="white"></path>
</g>
<defs>
<clipPath id="clip0_2_2018">
<rect width="29" height="29" fill="white" transform="translate(116)"></rect>
</clipPath>
<clipPath id="clip1_2_2018">
<rect width="29" height="29" fill="white" transform="translate(87)"></rect>
</clipPath>
<clipPath id="clip2_2_2018">
<rect width="29" height="29" fill="white" transform="translate(58)"></rect>
</clipPath>
<clipPath id="clip3_2_2018">
<rect width="29" height="29" fill="white" transform="translate(29)"></rect>
</clipPath>
<clipPath id="clip4_2_2018">
<rect width="29" height="29" fill="white"></rect>
</clipPath>
</defs>
</svg>
