<svg width="143" height="29" viewBox="0 0 143 29" fill="none" xmlns="http://www.w3.org/2000/svg">
<g clip-path="url('#clip0_2_1875')">
<path d="M43.4998 20.8679L50.9673 25.375L48.9857 16.8804L55.5832 11.165L46.8953 10.4279L43.4998 2.41663L40.1044 10.4279L31.4165 11.165L38.014 16.8804L36.0323 25.375L43.4998 20.8679Z" fill="white"></path>
</g>
<g clip-path="url('#clip1_2_1875')">
<path d="M14.4998 20.8679L21.9673 25.375L19.9857 16.8804L26.5832 11.165L17.8953 10.4279L14.4998 2.41663L11.1044 10.4279L2.4165 11.165L9.014 16.8804L7.03234 25.375L14.4998 20.8679Z" fill="white"></path>
</g>
<g clip-path="url('#clip2_2_1875')">
<path d="M72.4998 20.8679L79.9673 25.375L77.9857 16.8804L84.5832 11.165L75.8953 10.4279L72.4998 2.41663L69.1044 10.4279L60.4165 11.165L67.014 16.8804L65.0323 25.375L72.4998 20.8679Z" fill="white"></path>
</g>
<g clip-path="url('#clip3_2_1875')">
<path d="M101.5 20.8679L108.967 25.375L106.986 16.8804L113.583 11.165L104.895 10.4279L101.5 2.41663L98.1044 10.4279L89.4165 11.165L96.014 16.8804L94.0323 25.375L101.5 20.8679Z" fill="white"></path>
</g>
<g clip-path="url('#clip4_2_1875')">
<path d="M140.583 11.165L131.895 10.4158L128.5 2.41663L125.104 10.4279L116.417 11.165L123.014 16.8804L121.032 25.375L128.5 20.8679L135.967 25.375L133.998 16.8804L140.583 11.165ZM128.5 18.6083L123.957 21.3512L125.165 16.1795L121.153 12.6995L126.446 12.2404L128.5 7.37079L130.566 12.2525L135.859 12.7116L131.847 16.1916L133.055 21.3633L128.5 18.6083Z" fill="white"></path>
</g>
<defs>
<clipPath id="clip0_2_1875">
<rect width="29" height="29" fill="white" transform="translate(29)"></rect>
</clipPath>
<clipPath id="clip1_2_1875">
<rect width="29" height="29" fill="white"></rect>
</clipPath>
<clipPath id="clip2_2_1875">
<rect width="29" height="29" fill="white" transform="translate(58)"></rect>
</clipPath>
<clipPath id="clip3_2_1875">
<rect width="29" height="29" fill="white" transform="translate(87)"></rect>
</clipPath>
<clipPath id="clip4_2_1875">
<rect width="29" height="29" fill="white" transform="translate(114)"></rect>
</clipPath>
</defs>
</svg>
