<svg width="160" height="29" viewBox="0 0 160 29" fill="none" xmlns="http://www.w3.org/2000/svg">
<g clip-path="url('#clip0_2_1777')">
<path d="M157.583 11.165L148.895 10.4158L145.5 2.41663L142.104 10.4279L133.417 11.165L140.014 16.8804L138.032 25.375L145.5 20.8679L152.967 25.375L150.998 16.8804L157.583 11.165ZM145.5 18.6083L140.957 21.3512L142.165 16.1795L138.153 12.6995L143.446 12.2404L145.5 7.37079L147.566 12.2525L152.859 12.7116L148.847 16.1916L150.055 21.3633L145.5 18.6083Z" fill="white"></path>
</g>
<g clip-path="url('#clip1_2_1777')">
<path d="M87.4998 20.8679L94.9673 25.375L92.9857 16.8804L99.5832 11.165L90.8953 10.4279L87.4998 2.41663L84.1044 10.4279L75.4165 11.165L82.014 16.8804L80.0323 25.375L87.4998 20.8679Z" fill="white"></path>
</g>
<g clip-path="url('#clip2_2_1777')">
<path d="M58.4998 20.8679L65.9673 25.375L63.9857 16.8804L70.5832 11.165L61.8953 10.4279L58.4998 2.41663L55.1044 10.4279L46.4165 11.165L53.014 16.8804L51.0323 25.375L58.4998 20.8679Z" fill="white"></path>
</g>
<g clip-path="url('#clip3_2_1777')">
<path d="M116.5 20.8679L123.967 25.375L121.986 16.8804L128.583 11.165L119.895 10.4279L116.5 2.41663L113.104 10.4279L104.417 11.165L111.014 16.8804L109.032 25.375L116.5 20.8679Z" fill="white"></path>
</g>
<g clip-path="url('#clip4_2_1777')">
<path d="M29.4998 20.8679L36.9673 25.375L34.9857 16.8804L41.5832 11.165L32.8953 10.4279L29.4998 2.41663L26.1044 10.4279L17.4165 11.165L24.014 16.8804L22.0323 25.375L29.4998 20.8679Z" fill="white"></path>
</g>
<defs>
<clipPath id="clip0_2_1777">
<rect width="29" height="29" fill="white" transform="translate(131)"></rect>
</clipPath>
<clipPath id="clip1_2_1777">
<rect width="29" height="29" fill="white" transform="translate(73)"></rect>
</clipPath>
<clipPath id="clip2_2_1777">
<rect width="29" height="29" fill="white" transform="translate(44)"></rect>
</clipPath>
<clipPath id="clip3_2_1777">
<rect width="29" height="29" fill="white" transform="translate(102)"></rect>
</clipPath>
<clipPath id="clip4_2_1777">
<rect width="29" height="29" fill="white" transform="translate(15)"></rect>
</clipPath>
</defs>
</svg>
