<svg width="24" height="24" viewBox="0 0 24 24" fill="none" xmlns="http://www.w3.org/2000/svg">
<g clip-path="url('#clip0_166_3263')">
<path d="M12.0055 6.60934C8.59832 6.60934 5.85011 9.01403 5.85011 11.9953C5.85011 14.9765 8.59832 17.3812 12.0055 17.3812C15.4126 17.3812 18.1608 14.9765 18.1608 11.9953C18.1608 9.01403 15.4126 6.60934 12.0055 6.60934ZM12.0055 15.4968C9.80368 15.4968 8.00368 13.9265 8.00368 11.9953C8.00368 10.064 9.79832 8.49371 12.0055 8.49371C14.2126 8.49371 16.0072 10.064 16.0072 11.9953C16.0072 13.9265 14.2072 15.4968 12.0055 15.4968ZM19.8483 6.38903C19.8483 7.08746 19.2055 7.64528 18.4126 7.64528C17.6144 7.64528 16.9769 7.08278 16.9769 6.38903C16.9769 5.69528 17.6197 5.13278 18.4126 5.13278C19.2055 5.13278 19.8483 5.69528 19.8483 6.38903ZM23.9251 7.66403C23.834 5.98121 23.3947 4.49059 21.9858 3.26246C20.5822 2.03434 18.8787 1.64996 16.9555 1.56559C14.9733 1.46715 9.03225 1.46715 7.05011 1.56559C5.13225 1.64528 3.42868 2.02965 2.01975 3.25778C0.610826 4.4859 0.176897 5.97653 0.0804687 7.65934C-0.0320312 9.39371 -0.0320312 14.5921 0.0804687 16.3265C0.17154 18.0093 0.610826 19.5 2.01975 20.7281C3.42868 21.9562 5.12689 22.3406 7.05011 22.425C9.03225 22.5234 14.9733 22.5234 16.9555 22.425C18.8787 22.3453 20.5822 21.9609 21.9858 20.7281C23.3894 19.5 23.8287 18.0093 23.9251 16.3265C24.0376 14.5921 24.0376 9.3984 23.9251 7.66403ZM21.3644 18.1875C20.9465 19.1062 20.1376 19.814 19.0822 20.1843C17.5019 20.7328 13.7519 20.6062 12.0055 20.6062C10.259 20.6062 6.50368 20.7281 4.92868 20.1843C3.87868 19.8187 3.06975 19.1109 2.64654 18.1875C2.01975 16.8047 2.1644 13.5234 2.1644 11.9953C2.1644 10.4672 2.02511 7.18121 2.64654 5.80309C3.0644 4.88434 3.87332 4.17653 4.92868 3.80621C6.50904 3.25778 10.259 3.38434 12.0055 3.38434C13.7519 3.38434 17.5072 3.26246 19.0822 3.80621C20.1322 4.17184 20.9412 4.87965 21.3644 5.80309C21.9912 7.1859 21.8465 10.4672 21.8465 11.9953C21.8465 13.5234 21.9912 16.8093 21.3644 18.1875Z" fill="white"></path>
</g>
<defs>
<clipPath id="clip0_166_3263">
<rect width="24" height="24" fill="white"></rect>
</clipPath>
</defs>
</svg>
