<svg width="20" height="20" viewBox="0 0 20 20" fill="none" xmlns="http://www.w3.org/2000/svg">
<path d="M10 17.5C14.1421 17.5 17.5 14.1421 17.5 10C17.5 5.85786 14.1421 2.5 10 2.5C5.85786 2.5 2.5 5.85786 2.5 10C2.5 14.1421 5.85786 17.5 10 17.5Z" stroke="#007CC7" stroke-width="2" stroke-linecap="round" stroke-linejoin="round"></path>
<path d="M9.99992 11.6667C10.9204 11.6667 11.6666 10.9205 11.6666 10C11.6666 9.07957 10.9204 8.33337 9.99992 8.33337C9.07944 8.33337 8.33325 9.07957 8.33325 10C8.33325 10.9205 9.07944 11.6667 9.99992 11.6667Z" stroke="#007CC7" stroke-width="2" stroke-linecap="round" stroke-linejoin="round"></path>
<path d="M10 11.6666V17.5" stroke="#007CC7" stroke-width="2" stroke-linecap="round" stroke-linejoin="round"></path>
<path d="M8.33325 10L2.70825 8.33337" stroke="#007CC7" stroke-width="2" stroke-linecap="round" stroke-linejoin="round"></path>
<path d="M11.6667 10L17.2917 8.33337" stroke="#007CC7" stroke-width="2" stroke-linecap="round" stroke-linejoin="round"></path>
</svg>
